<svg version="1.1" id="Layer_1" xmlns="http://www.w3.org/2000/svg" xmlns:xlink="http://www.w3.org/1999/xlink" x="0px" y="0px"
	 width="100%" viewBox="0 0 192 192" enable-background="new 0 0 192 192" xml:space="preserve">
<path fill="#0101AA" opacity="1.000000" stroke="none" 
	d="
M1.000001,184.000000 
	C1.000000,126.645775 1.000000,69.291542 1.357589,11.591459 
	C4.810118,7.830402 7.905059,4.415201 11.000000,1.000000 
	C68.020897,1.000000 125.041786,1.000000 182.408844,1.358118 
	C185.460648,4.575934 188.131470,7.470242 190.905731,10.261725 
	C191.375656,10.734571 192.290634,10.765108 193.000000,10.999998 
	C193.000000,68.354225 193.000000,125.708458 192.640396,183.394012 
	C189.187195,186.816910 186.093597,189.908463 183.000000,193.000000 
	C125.979103,193.000000 68.958206,193.000000 11.586515,192.646454 
	C7.823811,189.528595 4.411907,186.764297 1.000001,184.000000 
M75.484444,32.899414 
	C69.800682,36.882065 63.161697,39.995007 58.602970,45.001972 
	C41.342098,63.960011 38.533920,86.852776 43.495209,110.925865 
	C49.822128,141.625244 75.068275,164.028732 114.034409,154.146729 
	C115.362656,153.809891 117.564186,155.115387 118.725342,156.284439 
	C121.392426,158.969635 123.291451,164.008484 126.178963,164.562057 
	C132.754150,165.822601 139.736450,164.959702 147.257980,164.959702 
	C141.562317,157.704269 136.546707,151.315140 131.455154,144.829254 
	C145.292618,132.213364 151.313461,116.383621 152.508514,98.487144 
	C153.575089,82.514771 150.969376,67.211876 142.446594,53.418774 
	C128.788437,31.314741 103.471344,23.484081 75.484444,32.899414 
z"/>
<path fill="#000000" opacity="1.000000" stroke="none" 
	d="
M193.000000,10.513433 
	C192.290634,10.765108 191.375656,10.734571 190.905731,10.261725 
	C188.131470,7.470242 185.460648,4.575934 182.877502,1.358118 
	C186.252457,1.000000 189.504913,1.000000 193.000000,1.000000 
	C193.000000,4.006597 193.000000,7.016734 193.000000,10.513433 
z"/>
<path fill="#000000" opacity="1.000000" stroke="none" 
	d="
M10.513435,1.000000 
	C7.905059,4.415201 4.810118,7.830402 1.357589,11.122801 
	C1.000000,7.747543 1.000000,4.495087 1.000000,1.000000 
	C4.006597,1.000000 7.016734,1.000000 10.513435,1.000000 
z"/>
<path fill="#000000" opacity="1.000000" stroke="none" 
	d="
M183.486572,193.000000 
	C186.093597,189.908463 189.187195,186.816910 192.640396,183.862671 
	C193.000000,186.923279 193.000000,189.846542 193.000000,193.000000 
	C189.993149,193.000000 186.983154,193.000000 183.486572,193.000000 
z"/>
<path fill="#000000" opacity="1.000000" stroke="none" 
	d="
M1.000001,184.491058 
	C4.411907,186.764297 7.823811,189.528595 11.117857,192.646454 
	C7.753531,193.000000 4.507063,193.000000 1.000000,193.000000 
	C1.000000,190.330307 1.000000,187.656204 1.000001,184.491058 
z"/>
<path fill="#FBFBFE" opacity="1.000000" stroke="none" 
	d="
M75.844620,32.761513 
	C103.471344,23.484081 128.788437,31.314741 142.446594,53.418774 
	C150.969376,67.211876 153.575089,82.514771 152.508514,98.487144 
	C151.313461,116.383621 145.292618,132.213364 131.455154,144.829254 
	C136.546707,151.315140 141.562317,157.704269 147.257980,164.959702 
	C139.736450,164.959702 132.754150,165.822601 126.178963,164.562057 
	C123.291451,164.008484 121.392426,158.969635 118.725342,156.284439 
	C117.564186,155.115387 115.362656,153.809891 114.034409,154.146729 
	C75.068275,164.028732 49.822128,141.625244 43.495209,110.925865 
	C38.533920,86.852776 41.342098,63.960011 58.602970,45.001972 
	C63.161697,39.995007 69.800682,36.882065 75.844620,32.761513 
M102.743134,136.946136 
	C101.890129,135.309326 101.256294,133.503189 100.145531,132.065536 
	C95.737549,126.360352 91.180519,120.770332 85.957977,114.235840 
	C92.528076,114.235840 97.807022,114.405197 103.068375,114.173988 
	C106.362625,114.029221 108.658569,114.866020 110.558571,117.772263 
	C113.182281,121.785461 116.315071,125.465851 119.686195,129.887360 
	C121.923187,126.995552 124.247421,124.761101 125.652542,122.050240 
	C135.168091,103.692184 135.274353,84.845856 126.799957,66.283607 
	C121.104073,53.807381 110.602837,47.820446 96.708214,47.900566 
	C82.956924,47.979866 73.096466,54.359432 67.201744,66.469490 
	C60.012783,81.238411 59.705914,96.816742 64.477180,112.230759 
	C70.237686,130.840576 82.410805,138.560181 102.743134,136.946136 
z"/>
<path fill="#0202AB" opacity="1.000000" stroke="none" 
	d="
M102.322525,137.062103 
	C82.410805,138.560181 70.237686,130.840576 64.477180,112.230759 
	C59.705914,96.816742 60.012783,81.238411 67.201744,66.469490 
	C73.096466,54.359432 82.956924,47.979866 96.708214,47.900566 
	C110.602837,47.820446 121.104073,53.807381 126.799957,66.283607 
	C135.274353,84.845856 135.168091,103.692184 125.652542,122.050240 
	C124.247421,124.761101 121.923187,126.995552 119.686195,129.887360 
	C116.315071,125.465851 113.182281,121.785461 110.558571,117.772263 
	C108.658569,114.866020 106.362625,114.029221 103.068375,114.173988 
	C97.807022,114.405197 92.528076,114.235840 85.957977,114.235840 
	C91.180519,120.770332 95.737549,126.360352 100.145531,132.065536 
	C101.256294,133.503189 101.890129,135.309326 102.322525,137.062103 
z"/>
</svg>