<svg version="1.1" id="Layer_1" xmlns="http://www.w3.org/2000/svg" xmlns:xlink="http://www.w3.org/1999/xlink" x="0px" y="0px"
	 width="100%" viewBox="0 0 512 512" enable-background="new 0 0 512 512" xml:space="preserve">
<path fill="#0000AA" opacity="1.000000" stroke="none" 
	d="
M1.000003,476.000000 
	C1.000000,330.309265 1.000000,184.618515 1.373696,38.559669 
	C2.175612,37.541142 2.756864,36.944981 3.009577,36.232323 
	C8.712236,20.150574 19.456175,9.065256 35.522514,3.156389 
	C36.482811,2.803213 37.180248,1.735318 38.000000,1.000000 
	C183.690750,1.000000 329.381500,1.000000 475.440247,1.373681 
	C476.133911,2.106081 476.395020,2.666599 476.794556,2.794483 
	C493.891541,8.266680 505.157196,19.629814 511.074219,36.488060 
	C511.302094,37.137356 512.339722,37.502464 513.000000,37.999992 
	C513.000000,183.690750 513.000000,329.381500 512.626282,475.440186 
	C511.893799,476.133606 511.333466,476.394470 511.205383,476.793915 
	C505.725281,493.883728 494.374115,505.161621 477.510620,511.073883 
	C476.861755,511.301422 476.497101,512.339600 476.000000,513.000000 
	C330.309265,513.000000 184.618515,513.000000 38.559734,512.626221 
	C37.541027,511.824249 36.945415,511.233551 36.231598,510.991608 
	C19.963631,505.477570 9.064986,494.545135 3.156633,478.478973 
	C2.803318,477.518219 1.735408,476.820251 1.000003,476.000000 
M166.690033,106.178574 
	C157.671188,116.147964 147.591110,125.362236 139.850250,136.240997 
	C122.738510,160.289307 114.189224,187.817963 110.736931,216.987350 
	C106.153152,255.716797 110.026054,293.300690 125.519798,329.437134 
	C150.376328,387.410614 204.415558,420.384827 267.453369,415.094482 
	C281.416138,413.922668 295.202057,410.643951 309.869232,408.202240 
	C316.511169,416.767029 323.845795,426.455109 331.504425,435.879883 
	C332.817749,437.496124 335.496643,438.826355 337.572052,438.866272 
	C351.230103,439.128937 364.895630,439.001770 378.558716,439.001770 
	C382.627747,439.001770 386.696777,439.001770 391.710449,439.001770 
	C376.947113,420.321808 362.845734,402.479370 349.167389,385.172211 
	C356.850922,376.405182 364.960480,368.405426 371.605865,359.333160 
	C391.045715,332.794067 400.975098,302.550140 404.186798,270.024750 
	C408.188934,229.494308 403.807587,190.120377 385.113831,153.436005 
	C360.403046,104.943924 320.869965,78.456017 266.036987,75.764053 
	C229.524017,73.971489 196.004669,81.997414 166.690033,106.178574 
z"/>
<path fill="#000000" opacity="1.000000" stroke="none" 
	d="
M513.000000,37.531334 
	C512.339722,37.502464 511.302094,37.137356 511.074219,36.488060 
	C505.157196,19.629814 493.891541,8.266680 476.794556,2.794483 
	C476.395020,2.666599 476.133911,2.106081 475.904114,1.373681 
	C488.259949,1.000000 500.519897,1.000000 513.000000,1.000000 
	C513.000000,13.020000 513.000000,25.041342 513.000000,37.531334 
z"/>
<path fill="#000000" opacity="1.000000" stroke="none" 
	d="
M476.468658,513.000000 
	C476.497101,512.339600 476.861755,511.301422 477.510620,511.073883 
	C494.374115,505.161621 505.725281,493.883728 511.205383,476.793915 
	C511.333466,476.394470 511.893799,476.133606 512.626282,475.904053 
	C513.000000,488.259949 513.000000,500.519897 513.000000,513.000000 
	C500.980011,513.000000 488.958649,513.000000 476.468658,513.000000 
z"/>
<path fill="#000000" opacity="1.000000" stroke="none" 
	d="
M37.531342,1.000000 
	C37.180248,1.735318 36.482811,2.803213 35.522514,3.156389 
	C19.456175,9.065256 8.712236,20.150574 3.009577,36.232323 
	C2.756864,36.944981 2.175612,37.541142 1.373696,38.095783 
	C1.000000,25.740049 1.000000,13.480098 1.000000,1.000000 
	C13.020000,1.000000 25.041342,1.000000 37.531342,1.000000 
z"/>
<path fill="#000000" opacity="1.000000" stroke="none" 
	d="
M1.000003,476.468658 
	C1.735408,476.820251 2.803318,477.518219 3.156633,478.478973 
	C9.064986,494.545135 19.963631,505.477570 36.231598,510.991608 
	C36.945415,511.233551 37.541027,511.824249 38.095848,512.626221 
	C25.740049,513.000000 13.480098,513.000000 1.000000,513.000000 
	C1.000000,500.980011 1.000000,488.958649 1.000003,476.468658 
z"/>
<path fill="#FEFEFF" opacity="1.000000" stroke="none" 
	d="
M166.966431,105.955566 
	C196.004669,81.997414 229.524017,73.971489 266.036987,75.764053 
	C320.869965,78.456017 360.403046,104.943924 385.113831,153.436005 
	C403.807587,190.120377 408.188934,229.494308 404.186798,270.024750 
	C400.975098,302.550140 391.045715,332.794067 371.605865,359.333160 
	C364.960480,368.405426 356.850922,376.405182 349.167389,385.172211 
	C362.845734,402.479370 376.947113,420.321808 391.710449,439.001770 
	C386.696777,439.001770 382.627747,439.001770 378.558716,439.001770 
	C364.895630,439.001770 351.230103,439.128937 337.572052,438.866272 
	C335.496643,438.826355 332.817749,437.496124 331.504425,435.879883 
	C323.845795,426.455109 316.511169,416.767029 309.869232,408.202240 
	C295.202057,410.643951 281.416138,413.922668 267.453369,415.094482 
	C204.415558,420.384827 150.376328,387.410614 125.519798,329.437134 
	C110.026054,293.300690 106.153152,255.716797 110.736931,216.987350 
	C114.189224,187.817963 122.738510,160.289307 139.850250,136.240997 
	C147.591110,125.362236 157.671188,116.147964 166.966431,105.955566 
M163.025757,228.696121 
	C163.008850,239.842010 162.341248,251.033157 163.112701,262.124207 
	C164.641953,284.110016 170.133942,305.104706 181.872940,324.051666 
	C202.995651,358.144165 237.158646,369.628632 275.514954,363.118866 
	C259.722778,343.312927 244.152298,323.785004 228.109558,303.664825 
	C229.739975,303.477386 230.503693,303.313599 231.267563,303.312927 
	C248.429413,303.298035 265.592224,303.220093 282.751709,303.421692 
	C284.531677,303.442596 286.804871,304.722992 287.970642,306.141205 
	C292.513184,311.667419 296.691986,317.492035 301.024567,323.191620 
	C306.332245,330.173920 311.658447,337.142059 318.027313,345.494202 
	C324.775818,335.626678 332.326508,327.269348 336.851715,317.509308 
	C357.455933,273.069580 357.799805,227.466537 339.961823,182.326447 
	C326.994141,149.510849 302.746307,129.422287 266.333405,126.508766 
	C232.197769,123.777473 204.105316,134.508911 184.355423,163.598297 
	C171.199799,182.975067 165.548660,204.851868 163.025757,228.696121 
z"/>
<path fill="#0101AA" opacity="1.000000" stroke="none" 
	d="
M163.052368,228.236786 
	C165.548660,204.851868 171.199799,182.975067 184.355423,163.598297 
	C204.105316,134.508911 232.197769,123.777473 266.333405,126.508766 
	C302.746307,129.422287 326.994141,149.510849 339.961823,182.326447 
	C357.799805,227.466537 357.455933,273.069580 336.851715,317.509308 
	C332.326508,327.269348 324.775818,335.626678 318.027313,345.494202 
	C311.658447,337.142059 306.332245,330.173920 301.024567,323.191620 
	C296.691986,317.492035 292.513184,311.667419 287.970642,306.141205 
	C286.804871,304.722992 284.531677,303.442596 282.751709,303.421692 
	C265.592224,303.220093 248.429413,303.298035 231.267563,303.312927 
	C230.503693,303.313599 229.739975,303.477386 228.109558,303.664825 
	C244.152298,323.785004 259.722778,343.312927 275.514954,363.118866 
	C237.158646,369.628632 202.995651,358.144165 181.872940,324.051666 
	C170.133942,305.104706 164.641953,284.110016 163.112701,262.124207 
	C162.341248,251.033157 163.008850,239.842010 163.052368,228.236786 
z"/>
</svg>